# xmcd
#
# Track frame offsets: 
#        150
#        16835
#        31115
#        43223
#        57933
#        69632
#        80344
#        98484
#        115842
#        130522
#        143833
#        159303
#        188950
#        207843
#        216694
#
# Disc length: 3049 seconds
#
# Revision: 0
# Processed by: cddbd v1.5.2PL0 Copyright (c) Steve Scherf et al.
# Submitted via: ExactAudioCopy v1.0b3
#
DISCID=cb0be70f
DTITLE=Various Artist - American country balladry
DYEAR=2001
DGENRE=Country
TTITLE0=Jambalaya
TTITLE1=Take me home country road
TTITLE2=California Dreamin
TTITLE3=No getting over me
TTITLE4=Blown in the wind
TTITLE5=All I have to do is feam
TTITLE6=Vincent
TTITLE7=It never rain in Southern California
TTITLE8=Longer
TTITLE9=Cotton Fields
TTITLE10=Tie a yellow ribbon round the old oak tree
TTITLE11=Sutter's will
TTITLE12=Islandsing over me
TTITLE13=The house of the rising sun
TTITLE14=Jolene
EXTD=
EXTT0=
EXTT1=
EXTT2=
EXTT3=
EXTT4=
EXTT5=
EXTT6=
EXTT7=
EXTT8=
EXTT9=
EXTT10=
EXTT11=
EXTT12=
EXTT13=
EXTT14=
PLAYORDER=
